<mxfile host="app.diagrams.net" agent="Mozilla/5.0 (Windows NT 10.0; Win64; x64) AppleWebKit/537.36 (KHTML, like Gecko) Chrome/140.0.0.0 Safari/537.36 Edg/140.0.0.0" version="28.2.3">
  <diagram name="Page-1" id="VMObhU61gZw6gnvPeTaQ">
    <mxGraphModel dx="2469" dy="1377" grid="1" gridSize="10" guides="1" tooltips="1" connect="1" arrows="1" fold="1" page="1" pageScale="1" pageWidth="850" pageHeight="1100" math="0" shadow="0">
      <root>
        <mxCell id="0" />
        <mxCell id="1" parent="0" />
        <mxCell id="xONEwutRC3D1gCXm4Fuw-1" value="Legend" style="shape=table;startSize=30;container=1;collapsible=0;childLayout=tableLayout;fontSize=16;align=left;verticalAlign=top;fillColor=none;strokeColor=none;fontColor=#4D4D4D;fontStyle=1;spacingLeft=6;spacing=0;resizable=0;" vertex="1" parent="1">
          <mxGeometry x="2490" y="1545" width="180" height="210" as="geometry" />
        </mxCell>
        <mxCell id="xONEwutRC3D1gCXm4Fuw-2" value="" style="shape=tableRow;horizontal=0;startSize=0;swimlaneHead=0;swimlaneBody=0;strokeColor=inherit;top=0;left=0;bottom=0;right=0;collapsible=0;dropTarget=0;fillColor=none;points=[[0,0.5],[1,0.5]];portConstraint=eastwest;fontSize=12;" vertex="1" parent="xONEwutRC3D1gCXm4Fuw-1">
          <mxGeometry y="30" width="180" height="30" as="geometry" />
        </mxCell>
        <mxCell id="xONEwutRC3D1gCXm4Fuw-3" value="Person" style="shape=partialRectangle;html=1;whiteSpace=wrap;connectable=0;strokeColor=inherit;overflow=hidden;fillColor=#1E4074;top=0;left=0;bottom=0;right=0;pointerEvents=1;fontSize=12;align=left;fontColor=#FFFFFF;gradientColor=none;spacingLeft=10;spacingRight=4;" vertex="1" parent="xONEwutRC3D1gCXm4Fuw-2">
          <mxGeometry width="180" height="30" as="geometry">
            <mxRectangle width="180" height="30" as="alternateBounds" />
          </mxGeometry>
        </mxCell>
        <mxCell id="xONEwutRC3D1gCXm4Fuw-4" value="" style="shape=tableRow;horizontal=0;startSize=0;swimlaneHead=0;swimlaneBody=0;strokeColor=inherit;top=0;left=0;bottom=0;right=0;collapsible=0;dropTarget=0;fillColor=none;points=[[0,0.5],[1,0.5]];portConstraint=eastwest;fontSize=12;" vertex="1" parent="xONEwutRC3D1gCXm4Fuw-1">
          <mxGeometry y="60" width="180" height="30" as="geometry" />
        </mxCell>
        <mxCell id="xONEwutRC3D1gCXm4Fuw-5" value="Software System" style="shape=partialRectangle;html=1;whiteSpace=wrap;connectable=0;strokeColor=inherit;overflow=hidden;fillColor=#3162AF;top=0;left=0;bottom=0;right=0;pointerEvents=1;fontSize=12;align=left;fontColor=#FFFFFF;gradientColor=none;spacingLeft=10;spacingRight=4;" vertex="1" parent="xONEwutRC3D1gCXm4Fuw-4">
          <mxGeometry width="180" height="30" as="geometry">
            <mxRectangle width="180" height="30" as="alternateBounds" />
          </mxGeometry>
        </mxCell>
        <mxCell id="xONEwutRC3D1gCXm4Fuw-6" value="" style="shape=tableRow;horizontal=0;startSize=0;swimlaneHead=0;swimlaneBody=0;strokeColor=inherit;top=0;left=0;bottom=0;right=0;collapsible=0;dropTarget=0;fillColor=none;points=[[0,0.5],[1,0.5]];portConstraint=eastwest;fontSize=12;" vertex="1" parent="xONEwutRC3D1gCXm4Fuw-1">
          <mxGeometry y="90" width="180" height="30" as="geometry" />
        </mxCell>
        <mxCell id="xONEwutRC3D1gCXm4Fuw-7" value="Container" style="shape=partialRectangle;html=1;whiteSpace=wrap;connectable=0;strokeColor=inherit;overflow=hidden;fillColor=#52a2d8;top=0;left=0;bottom=0;right=0;pointerEvents=1;fontSize=12;align=left;fontColor=#FFFFFF;gradientColor=none;spacingLeft=10;spacingRight=4;" vertex="1" parent="xONEwutRC3D1gCXm4Fuw-6">
          <mxGeometry width="180" height="30" as="geometry">
            <mxRectangle width="180" height="30" as="alternateBounds" />
          </mxGeometry>
        </mxCell>
        <mxCell id="xONEwutRC3D1gCXm4Fuw-8" value="" style="shape=tableRow;horizontal=0;startSize=0;swimlaneHead=0;swimlaneBody=0;strokeColor=inherit;top=0;left=0;bottom=0;right=0;collapsible=0;dropTarget=0;fillColor=none;points=[[0,0.5],[1,0.5]];portConstraint=eastwest;fontSize=12;" vertex="1" parent="xONEwutRC3D1gCXm4Fuw-1">
          <mxGeometry y="120" width="180" height="30" as="geometry" />
        </mxCell>
        <mxCell id="xONEwutRC3D1gCXm4Fuw-9" value="Component" style="shape=partialRectangle;html=1;whiteSpace=wrap;connectable=0;strokeColor=inherit;overflow=hidden;fillColor=#7dbef2;top=0;left=0;bottom=0;right=0;pointerEvents=1;fontSize=12;align=left;fontColor=#FFFFFF;gradientColor=none;spacingLeft=10;spacingRight=4;" vertex="1" parent="xONEwutRC3D1gCXm4Fuw-8">
          <mxGeometry width="180" height="30" as="geometry">
            <mxRectangle width="180" height="30" as="alternateBounds" />
          </mxGeometry>
        </mxCell>
        <mxCell id="xONEwutRC3D1gCXm4Fuw-10" value="" style="shape=tableRow;horizontal=0;startSize=0;swimlaneHead=0;swimlaneBody=0;strokeColor=inherit;top=0;left=0;bottom=0;right=0;collapsible=0;dropTarget=0;fillColor=none;points=[[0,0.5],[1,0.5]];portConstraint=eastwest;fontSize=12;" vertex="1" parent="xONEwutRC3D1gCXm4Fuw-1">
          <mxGeometry y="150" width="180" height="30" as="geometry" />
        </mxCell>
        <mxCell id="xONEwutRC3D1gCXm4Fuw-11" value="External Person" style="shape=partialRectangle;html=1;whiteSpace=wrap;connectable=0;strokeColor=inherit;overflow=hidden;fillColor=#6b6477;top=0;left=0;bottom=0;right=0;pointerEvents=1;fontSize=12;align=left;fontColor=#FFFFFF;gradientColor=none;spacingLeft=10;spacingRight=4;" vertex="1" parent="xONEwutRC3D1gCXm4Fuw-10">
          <mxGeometry width="180" height="30" as="geometry">
            <mxRectangle width="180" height="30" as="alternateBounds" />
          </mxGeometry>
        </mxCell>
        <mxCell id="xONEwutRC3D1gCXm4Fuw-12" value="" style="shape=tableRow;horizontal=0;startSize=0;swimlaneHead=0;swimlaneBody=0;strokeColor=inherit;top=0;left=0;bottom=0;right=0;collapsible=0;dropTarget=0;fillColor=none;points=[[0,0.5],[1,0.5]];portConstraint=eastwest;fontSize=12;" vertex="1" parent="xONEwutRC3D1gCXm4Fuw-1">
          <mxGeometry y="180" width="180" height="30" as="geometry" />
        </mxCell>
        <mxCell id="xONEwutRC3D1gCXm4Fuw-13" value="External Software System" style="shape=partialRectangle;html=1;whiteSpace=wrap;connectable=0;strokeColor=inherit;overflow=hidden;fillColor=#8b8496;top=0;left=0;bottom=0;right=0;pointerEvents=1;fontSize=12;align=left;fontColor=#FFFFFF;gradientColor=none;spacingLeft=10;spacingRight=4;" vertex="1" parent="xONEwutRC3D1gCXm4Fuw-12">
          <mxGeometry width="180" height="30" as="geometry">
            <mxRectangle width="180" height="30" as="alternateBounds" />
          </mxGeometry>
        </mxCell>
        <object placeholders="1" c4Name="SPA" c4Type="ReactJS" c4Description="GUI for the application" label="&lt;font style=&quot;font-size: 16px&quot;&gt;&lt;b&gt;%c4Name%&lt;/b&gt;&lt;/font&gt;&lt;div&gt;[%c4Type%]&lt;/div&gt;&lt;br&gt;&lt;div&gt;&lt;font style=&quot;font-size: 11px&quot;&gt;&lt;font color=&quot;#cccccc&quot;&gt;%c4Description%&lt;/font&gt;&lt;/div&gt;" id="xONEwutRC3D1gCXm4Fuw-14">
          <mxCell style="rounded=1;whiteSpace=wrap;html=1;labelBackgroundColor=none;fillColor=light-dark(#52a2d8, #69aef2);fontColor=#ffffff;align=center;arcSize=0;strokeColor=#0D5091;metaEdit=1;resizable=0;points=[[0.25,0,0],[0.5,0,0],[0.75,0,0],[1,0.25,0],[1,0.5,0],[1,0.75,0],[0.75,1,0],[0.5,1,0],[0.25,1,0],[0,0.75,0],[0,0.5,0],[0,0.25,0]];textShadow=1;" vertex="1" parent="1">
            <mxGeometry x="1790" y="180" width="240" height="120" as="geometry" />
          </mxCell>
        </object>
        <object placeholders="1" c4Name="API" c4Type="Net Core API" c4Description="" label="&lt;font style=&quot;font-size: 16px&quot;&gt;&lt;span&gt;%c4Name%&lt;/span&gt;&lt;/font&gt;&lt;div&gt;[%c4Type%]&lt;/div&gt;&lt;br&gt;&lt;div&gt;&lt;font style=&quot;font-size: 11px&quot;&gt;&lt;font&gt;%c4Description%&lt;/font&gt;&lt;/font&gt;&lt;/div&gt;" id="xONEwutRC3D1gCXm4Fuw-15">
          <mxCell style="rounded=1;whiteSpace=wrap;html=1;labelBackgroundColor=none;fillColor=light-dark(#7dbef2, #69aef2);fontColor=light-dark(#3d1c1c, #121212);align=center;arcSize=0;strokeColor=light-dark(#7dbef2, #7fb9f1);metaEdit=1;resizable=1;points=[[0.25,0,0],[0.5,0,0],[0.75,0,0],[1,0.25,0],[1,0.5,0],[1,0.75,0],[0.75,1,0],[0.5,1,0],[0.25,1,0],[0,0.75,0],[0,0.5,0],[0,0.25,0]];textShadow=1;movable=1;rotatable=1;deletable=1;editable=1;locked=0;connectable=1;fontStyle=1" vertex="1" parent="1">
            <mxGeometry x="1830" y="560" width="160" height="90" as="geometry" />
          </mxCell>
        </object>
        <object placeholders="1" c4Name="Registrations" c4Type="Net Libraries" c4Description="" label="&lt;font style=&quot;font-size: 16px&quot;&gt;&lt;span&gt;%c4Name%&lt;/span&gt;&lt;/font&gt;&lt;div&gt;[%c4Type%]&lt;/div&gt;&lt;br&gt;&lt;div&gt;&lt;font style=&quot;font-size: 11px&quot;&gt;&lt;font&gt;%c4Description%&lt;/font&gt;&lt;/font&gt;&lt;/div&gt;" id="xONEwutRC3D1gCXm4Fuw-16">
          <mxCell style="rounded=1;whiteSpace=wrap;html=1;labelBackgroundColor=none;fillColor=light-dark(#7dbef2, #69aef2);fontColor=light-dark(#3d1c1c, #121212);align=center;arcSize=0;strokeColor=light-dark(#7dbef2, #7fb9f1);metaEdit=1;resizable=1;points=[[0.25,0,0],[0.5,0,0],[0.75,0,0],[1,0.25,0],[1,0.5,0],[1,0.75,0],[0.75,1,0],[0.5,1,0],[0.25,1,0],[0,0.75,0],[0,0.5,0],[0,0.25,0]];textShadow=1;movable=1;rotatable=1;deletable=1;editable=1;locked=0;connectable=1;fontStyle=1" vertex="1" parent="1">
            <mxGeometry x="1350" y="830" width="160" height="90" as="geometry" />
          </mxCell>
        </object>
        <object placeholders="1" c4Name="User Access" c4Type="Net Libraries" c4Description="" label="&lt;font style=&quot;font-size: 16px&quot;&gt;&lt;span&gt;%c4Name%&lt;/span&gt;&lt;/font&gt;&lt;div&gt;[%c4Type%]&lt;/div&gt;&lt;br&gt;&lt;div&gt;&lt;font style=&quot;font-size: 11px&quot;&gt;&lt;font&gt;%c4Description%&lt;/font&gt;&lt;/font&gt;&lt;/div&gt;" id="xONEwutRC3D1gCXm4Fuw-17">
          <mxCell style="rounded=1;whiteSpace=wrap;html=1;labelBackgroundColor=none;fillColor=light-dark(#7dbef2, #69aef2);fontColor=light-dark(#3d1c1c, #121212);align=center;arcSize=0;strokeColor=light-dark(#7dbef2, #7fb9f1);metaEdit=1;resizable=1;points=[[0.25,0,0],[0.5,0,0],[0.75,0,0],[1,0.25,0],[1,0.5,0],[1,0.75,0],[0.75,1,0],[0.5,1,0],[0.25,1,0],[0,0.75,0],[0,0.5,0],[0,0.25,0]];textShadow=1;movable=1;rotatable=1;deletable=1;editable=1;locked=0;connectable=1;fontStyle=1" vertex="1" parent="1">
            <mxGeometry x="1580" y="830" width="160" height="90" as="geometry" />
          </mxCell>
        </object>
        <object placeholders="1" c4Name="Meetings" c4Type="Net Libraries" c4Description="" label="&lt;font style=&quot;font-size: 16px&quot;&gt;&lt;span&gt;%c4Name%&lt;/span&gt;&lt;/font&gt;&lt;div&gt;[%c4Type%]&lt;/div&gt;&lt;br&gt;&lt;div&gt;&lt;font style=&quot;font-size: 11px&quot;&gt;&lt;font&gt;%c4Description%&lt;/font&gt;&lt;/font&gt;&lt;/div&gt;" id="xONEwutRC3D1gCXm4Fuw-18">
          <mxCell style="rounded=1;whiteSpace=wrap;html=1;labelBackgroundColor=none;fillColor=light-dark(#7dbef2, #69aef2);fontColor=light-dark(#3d1c1c, #121212);align=center;arcSize=0;strokeColor=light-dark(#7dbef2, #7fb9f1);metaEdit=1;resizable=1;points=[[0.25,0,0],[0.5,0,0],[0.75,0,0],[1,0.25,0],[1,0.5,0],[1,0.75,0],[0.75,1,0],[0.5,1,0],[0.25,1,0],[0,0.75,0],[0,0.5,0],[0,0.25,0]];textShadow=1;movable=1;rotatable=1;deletable=1;editable=1;locked=0;connectable=1;fontStyle=1" vertex="1" parent="1">
            <mxGeometry x="1830" y="830" width="160" height="90" as="geometry" />
          </mxCell>
        </object>
        <object placeholders="1" c4Name="Administration" c4Type="Net Libraries" c4Description="" label="&lt;font style=&quot;font-size: 16px&quot;&gt;&lt;span&gt;%c4Name%&lt;/span&gt;&lt;/font&gt;&lt;div&gt;[%c4Type%]&lt;/div&gt;&lt;br&gt;&lt;div&gt;&lt;font style=&quot;font-size: 11px&quot;&gt;&lt;font&gt;%c4Description%&lt;/font&gt;&lt;/font&gt;&lt;/div&gt;" id="xONEwutRC3D1gCXm4Fuw-19">
          <mxCell style="rounded=1;whiteSpace=wrap;html=1;labelBackgroundColor=none;fillColor=light-dark(#7dbef2, #69aef2);fontColor=light-dark(#3d1c1c, #121212);align=center;arcSize=0;strokeColor=light-dark(#7dbef2, #7fb9f1);metaEdit=1;resizable=1;points=[[0.25,0,0],[0.5,0,0],[0.75,0,0],[1,0.25,0],[1,0.5,0],[1,0.75,0],[0.75,1,0],[0.5,1,0],[0.25,1,0],[0,0.75,0],[0,0.5,0],[0,0.25,0]];textShadow=1;movable=1;rotatable=1;deletable=1;editable=1;locked=0;connectable=1;fontStyle=1" vertex="1" parent="1">
            <mxGeometry x="2050" y="830" width="160" height="90" as="geometry" />
          </mxCell>
        </object>
        <object placeholders="1" c4Name="Payments" c4Type="Net Libraries" c4Description="" label="&lt;font style=&quot;font-size: 16px&quot;&gt;&lt;span&gt;%c4Name%&lt;/span&gt;&lt;/font&gt;&lt;div&gt;[%c4Type%]&lt;/div&gt;&lt;br&gt;&lt;div&gt;&lt;font style=&quot;font-size: 11px&quot;&gt;&lt;font&gt;%c4Description%&lt;/font&gt;&lt;/font&gt;&lt;/div&gt;" id="xONEwutRC3D1gCXm4Fuw-20">
          <mxCell style="rounded=1;whiteSpace=wrap;html=1;labelBackgroundColor=none;fillColor=light-dark(#7dbef2, #69aef2);fontColor=light-dark(#3d1c1c, #121212);align=center;arcSize=0;strokeColor=light-dark(#7dbef2, #7fb9f1);metaEdit=1;resizable=1;points=[[0.25,0,0],[0.5,0,0],[0.75,0,0],[1,0.25,0],[1,0.5,0],[1,0.75,0],[0.75,1,0],[0.5,1,0],[0.25,1,0],[0,0.75,0],[0,0.5,0],[0,0.25,0]];textShadow=1;movable=1;rotatable=1;deletable=1;editable=1;locked=0;connectable=1;fontStyle=1" vertex="1" parent="1">
            <mxGeometry x="2260" y="830" width="160" height="90" as="geometry" />
          </mxCell>
        </object>
        <object placeholders="1" c4Name="Events Bus" c4Type="" c4Technology="In memory" c4Description="" label="&lt;font style=&quot;font-size: 16px&quot;&gt;&lt;b&gt;%c4Name%&lt;/b&gt;&lt;/font&gt;&lt;div&gt;[%c4Type%:&amp;nbsp;%c4Technology%]&lt;/div&gt;&lt;br&gt;&lt;div&gt;&lt;font style=&quot;font-size: 11px&quot;&gt;&lt;font&gt;%c4Description%&lt;/font&gt;&lt;/font&gt;&lt;/div&gt;" id="xONEwutRC3D1gCXm4Fuw-21">
          <mxCell style="shape=cylinder3;size=15;direction=south;whiteSpace=wrap;html=1;boundedLbl=1;rounded=0;labelBackgroundColor=none;fillColor=light-dark(#7dbef2, #1d8ab9);fontSize=12;fontColor=light-dark(#442f35, #121212);align=center;strokeColor=#0E7DAD;metaEdit=1;points=[[0.5,0,0],[1,0.25,0],[1,0.5,0],[1,0.75,0],[0.5,1,0],[0,0.75,0],[0,0.5,0],[0,0.25,0]];resizable=1;movable=1;rotatable=1;deletable=1;editable=1;locked=0;connectable=1;" vertex="1" parent="1">
            <mxGeometry x="2080" y="1157.5" width="190" height="85" as="geometry" />
          </mxCell>
        </object>
        <object placeholders="1" c4Name="Payment data" c4Type="schema" c4Technology="" c4Description="" label="&lt;font style=&quot;font-size: 16px&quot;&gt;&lt;b&gt;%c4Name%&lt;/b&gt;&lt;/font&gt;&lt;div&gt;[%c4Type%:&amp;nbsp;%c4Technology%]&lt;/div&gt;&lt;br&gt;&lt;div&gt;&lt;font style=&quot;font-size: 11px&quot;&gt;&lt;font&gt;%c4Description%&lt;/font&gt;&lt;/font&gt;&lt;/div&gt;" id="xONEwutRC3D1gCXm4Fuw-22">
          <mxCell style="shape=cylinder3;size=15;whiteSpace=wrap;html=1;boundedLbl=1;rounded=0;labelBackgroundColor=none;fillColor=light-dark(#7dbef2, #1d8ab9);fontSize=12;fontColor=light-dark(#171313, #121212);align=center;strokeColor=#0E7DAD;metaEdit=1;points=[[0.5,0,0],[1,0.25,0],[1,0.5,0],[1,0.75,0],[0.5,1,0],[0,0.75,0],[0,0.5,0],[0,0.25,0]];resizable=1;movable=1;rotatable=1;deletable=1;editable=1;locked=0;connectable=1;" vertex="1" parent="1">
            <mxGeometry x="1750" y="1150" width="240" height="105" as="geometry" />
          </mxCell>
        </object>
        <object placeholders="1" c4Name="Administration data" c4Type="schema" c4Technology="" c4Description="" label="&lt;font style=&quot;font-size: 16px&quot;&gt;&lt;b&gt;%c4Name%&lt;/b&gt;&lt;/font&gt;&lt;div&gt;[%c4Type%:&amp;nbsp;%c4Technology%]&lt;/div&gt;&lt;br&gt;&lt;div&gt;&lt;font style=&quot;font-size: 11px&quot;&gt;&lt;font&gt;%c4Description%&lt;/font&gt;&lt;/font&gt;&lt;/div&gt;" id="xONEwutRC3D1gCXm4Fuw-23">
          <mxCell style="shape=cylinder3;size=15;whiteSpace=wrap;html=1;boundedLbl=1;rounded=0;labelBackgroundColor=none;fillColor=light-dark(#7dbef2, #1d8ab9);fontSize=12;fontColor=light-dark(#171313, #121212);align=center;strokeColor=#0E7DAD;metaEdit=1;points=[[0.5,0,0],[1,0.25,0],[1,0.5,0],[1,0.75,0],[0.5,1,0],[0,0.75,0],[0,0.5,0],[0,0.25,0]];resizable=1;movable=1;rotatable=1;deletable=1;editable=1;locked=0;connectable=1;" vertex="1" parent="1">
            <mxGeometry x="1460" y="1150" width="240" height="105" as="geometry" />
          </mxCell>
        </object>
        <object placeholders="1" c4Name="Meetings data" c4Type="schema" c4Technology="" c4Description="" label="&lt;font style=&quot;font-size: 16px&quot;&gt;&lt;b&gt;%c4Name%&lt;/b&gt;&lt;/font&gt;&lt;div&gt;[%c4Type%:&amp;nbsp;%c4Technology%]&lt;/div&gt;&lt;br&gt;&lt;div&gt;&lt;font style=&quot;font-size: 11px&quot;&gt;&lt;font&gt;%c4Description%&lt;/font&gt;&lt;/font&gt;&lt;/div&gt;" id="xONEwutRC3D1gCXm4Fuw-24">
          <mxCell style="shape=cylinder3;size=15;whiteSpace=wrap;html=1;boundedLbl=1;rounded=0;labelBackgroundColor=none;fillColor=light-dark(#7dbef2, #1d8ab9);fontSize=12;fontColor=light-dark(#171313, #121212);align=center;strokeColor=#0E7DAD;metaEdit=1;points=[[0.5,0,0],[1,0.25,0],[1,0.5,0],[1,0.75,0],[0.5,1,0],[0,0.75,0],[0,0.5,0],[0,0.25,0]];resizable=1;movable=1;rotatable=1;deletable=1;editable=1;locked=0;connectable=1;" vertex="1" parent="1">
            <mxGeometry x="1135" y="1150" width="240" height="105" as="geometry" />
          </mxCell>
        </object>
        <object placeholders="1" c4Name="User Access data" c4Type="schema" c4Technology="" c4Description="" label="&lt;font style=&quot;font-size: 16px&quot;&gt;&lt;b&gt;%c4Name%&lt;/b&gt;&lt;/font&gt;&lt;div&gt;[%c4Type%:&amp;nbsp;%c4Technology%]&lt;/div&gt;&lt;br&gt;&lt;div&gt;&lt;font style=&quot;font-size: 11px&quot;&gt;&lt;font&gt;%c4Description%&lt;/font&gt;&lt;/font&gt;&lt;/div&gt;" id="xONEwutRC3D1gCXm4Fuw-25">
          <mxCell style="shape=cylinder3;size=15;whiteSpace=wrap;html=1;boundedLbl=1;rounded=0;labelBackgroundColor=none;fillColor=light-dark(#7dbef2, #1d8ab9);fontSize=12;fontColor=light-dark(#171313, #121212);align=center;strokeColor=#0E7DAD;metaEdit=1;points=[[0.5,0,0],[1,0.25,0],[1,0.5,0],[1,0.75,0],[0.5,1,0],[0,0.75,0],[0,0.5,0],[0,0.25,0]];resizable=1;movable=1;rotatable=1;deletable=1;editable=1;locked=0;connectable=1;" vertex="1" parent="1">
            <mxGeometry x="810" y="1150" width="240" height="105" as="geometry" />
          </mxCell>
        </object>
        <object placeholders="1" c4Name="Registrations data" c4Type="schema" c4Technology="" c4Description="" label="&lt;font style=&quot;font-size: 16px&quot;&gt;&lt;b&gt;%c4Name%&lt;/b&gt;&lt;/font&gt;&lt;div&gt;[%c4Type%:&amp;nbsp;%c4Technology%]&lt;/div&gt;&lt;br&gt;&lt;div&gt;&lt;font style=&quot;font-size: 11px&quot;&gt;&lt;font&gt;%c4Description%&lt;/font&gt;&lt;/font&gt;&lt;/div&gt;" id="xONEwutRC3D1gCXm4Fuw-26">
          <mxCell style="shape=cylinder3;size=15;whiteSpace=wrap;html=1;boundedLbl=1;rounded=0;labelBackgroundColor=none;fillColor=light-dark(#7dbef2, #1d8ab9);fontSize=12;fontColor=light-dark(#171313, #121212);align=center;strokeColor=#0E7DAD;metaEdit=1;points=[[0.5,0,0],[1,0.25,0],[1,0.5,0],[1,0.75,0],[0.5,1,0],[0,0.75,0],[0,0.5,0],[0,0.25,0]];resizable=1;movable=1;rotatable=1;deletable=1;editable=1;locked=0;connectable=1;" vertex="1" parent="1">
            <mxGeometry x="500" y="1150" width="240" height="105" as="geometry" />
          </mxCell>
        </object>
        <object placeholders="1" c4Name="My meetings System" c4Type="SystemScopeBoundary" c4Application="System" label="&lt;font style=&quot;font-size: 16px&quot;&gt;&lt;b&gt;&lt;div style=&quot;text-align: left&quot;&gt;%c4Name%&lt;/div&gt;&lt;/b&gt;&lt;/font&gt;&lt;div style=&quot;text-align: left&quot;&gt;[%c4Application%]&lt;/div&gt;" id="xONEwutRC3D1gCXm4Fuw-27">
          <mxCell style="rounded=1;fontSize=11;whiteSpace=wrap;html=1;dashed=1;arcSize=20;fillColor=none;strokeColor=#666666;fontColor=#333333;labelBackgroundColor=none;align=left;verticalAlign=bottom;labelBorderColor=none;spacingTop=0;spacing=10;dashPattern=8 4;metaEdit=1;rotatable=0;perimeter=rectanglePerimeter;noLabel=0;labelPadding=0;allowArrows=0;connectable=0;expand=0;recursiveResize=0;editable=1;pointerEvents=0;absoluteArcSize=1;points=[[0.25,0,0],[0.5,0,0],[0.75,0,0],[1,0.25,0],[1,0.5,0],[1,0.75,0],[0.75,1,0],[0.5,1,0],[0.25,1,0],[0,0.75,0],[0,0.5,0],[0,0.25,0]];" vertex="1" parent="1">
            <mxGeometry x="300" y="120" width="2410" height="1390" as="geometry" />
          </mxCell>
        </object>
        <object placeholders="1" c4Name="My Meetings API" c4Type="ContainerScopeBoundary" c4Application="" label="&lt;font style=&quot;font-size: 16px&quot;&gt;&lt;b&gt;&lt;div style=&quot;text-align: left&quot;&gt;%c4Name%&lt;/div&gt;&lt;/b&gt;&lt;/font&gt;&lt;div style=&quot;text-align: left&quot;&gt;[%c4Application%]&lt;/div&gt;" id="xONEwutRC3D1gCXm4Fuw-28">
          <mxCell style="rounded=1;fontSize=11;whiteSpace=wrap;html=1;dashed=1;arcSize=20;fillColor=none;strokeColor=#666666;fontColor=#333333;labelBackgroundColor=none;align=left;verticalAlign=bottom;labelBorderColor=none;spacingTop=0;spacing=10;dashPattern=8 4;metaEdit=1;rotatable=0;perimeter=rectanglePerimeter;noLabel=0;labelPadding=0;allowArrows=0;connectable=0;expand=0;recursiveResize=0;editable=1;pointerEvents=0;absoluteArcSize=1;points=[[0.25,0,0],[0.5,0,0],[0.75,0,0],[1,0.25,0],[1,0.5,0],[1,0.75,0],[0.75,1,0],[0.5,1,0],[0.25,1,0],[0,0.75,0],[0,0.5,0],[0,0.25,0]];" vertex="1" parent="1">
            <mxGeometry x="430" y="390" width="2230" height="1020" as="geometry" />
          </mxCell>
        </object>
        <object placeholders="1" c4Name="Database" c4Type="ContainerScopeBoundary" c4Application="" label="&lt;font style=&quot;font-size: 16px&quot;&gt;&lt;b&gt;&lt;div style=&quot;text-align: left&quot;&gt;%c4Name%&lt;/div&gt;&lt;/b&gt;&lt;/font&gt;&lt;div style=&quot;text-align: left&quot;&gt;[%c4Application%]&lt;/div&gt;" id="xONEwutRC3D1gCXm4Fuw-29">
          <mxCell style="rounded=1;fontSize=11;whiteSpace=wrap;html=1;dashed=1;arcSize=20;fillColor=none;strokeColor=#666666;fontColor=#333333;labelBackgroundColor=none;align=left;verticalAlign=bottom;labelBorderColor=none;spacingTop=0;spacing=10;dashPattern=8 4;metaEdit=1;rotatable=0;perimeter=rectanglePerimeter;noLabel=0;labelPadding=0;allowArrows=0;connectable=0;expand=0;recursiveResize=0;editable=1;pointerEvents=0;absoluteArcSize=1;points=[[0.25,0,0],[0.5,0,0],[0.75,0,0],[1,0.25,0],[1,0.5,0],[1,0.75,0],[0.75,1,0],[0.5,1,0],[0.25,1,0],[0,0.75,0],[0,0.5,0],[0,0.25,0]];" vertex="1" parent="1">
            <mxGeometry x="490" y="1100" width="1540" height="200" as="geometry" />
          </mxCell>
        </object>
        <mxCell id="xONEwutRC3D1gCXm4Fuw-30" value="" style="html=1;verticalAlign=bottom;labelBackgroundColor=none;endArrow=block;endFill=1;rounded=0;exitX=0.5;exitY=1;exitDx=0;exitDy=0;exitPerimeter=0;entryX=0.5;entryY=0;entryDx=0;entryDy=0;entryPerimeter=0;" edge="1" parent="1" source="xONEwutRC3D1gCXm4Fuw-14" target="xONEwutRC3D1gCXm4Fuw-15">
          <mxGeometry width="160" relative="1" as="geometry">
            <mxPoint x="1180" y="730" as="sourcePoint" />
            <mxPoint x="1340" y="730" as="targetPoint" />
          </mxGeometry>
        </mxCell>
        <mxCell id="xONEwutRC3D1gCXm4Fuw-31" value="" style="html=1;verticalAlign=bottom;labelBackgroundColor=none;endArrow=block;endFill=1;rounded=0;exitX=0;exitY=0.75;exitDx=0;exitDy=0;exitPerimeter=0;entryX=0.5;entryY=0;entryDx=0;entryDy=0;entryPerimeter=0;" edge="1" parent="1" source="xONEwutRC3D1gCXm4Fuw-15" target="xONEwutRC3D1gCXm4Fuw-16">
          <mxGeometry width="160" relative="1" as="geometry">
            <mxPoint x="1910" y="440" as="sourcePoint" />
            <mxPoint x="1910" y="700" as="targetPoint" />
          </mxGeometry>
        </mxCell>
        <mxCell id="xONEwutRC3D1gCXm4Fuw-32" value="" style="html=1;verticalAlign=bottom;labelBackgroundColor=none;endArrow=block;endFill=1;rounded=0;exitX=0.25;exitY=1;exitDx=0;exitDy=0;exitPerimeter=0;entryX=0.5;entryY=0;entryDx=0;entryDy=0;entryPerimeter=0;" edge="1" parent="1" source="xONEwutRC3D1gCXm4Fuw-15" target="xONEwutRC3D1gCXm4Fuw-17">
          <mxGeometry width="160" relative="1" as="geometry">
            <mxPoint x="2170" y="690" as="sourcePoint" />
            <mxPoint x="1770" y="892" as="targetPoint" />
          </mxGeometry>
        </mxCell>
        <mxCell id="xONEwutRC3D1gCXm4Fuw-33" value="" style="html=1;verticalAlign=bottom;labelBackgroundColor=none;endArrow=block;endFill=1;rounded=0;entryX=0.5;entryY=0;entryDx=0;entryDy=0;entryPerimeter=0;exitX=0.5;exitY=1;exitDx=0;exitDy=0;exitPerimeter=0;" edge="1" parent="1" source="xONEwutRC3D1gCXm4Fuw-15" target="xONEwutRC3D1gCXm4Fuw-18">
          <mxGeometry width="160" relative="1" as="geometry">
            <mxPoint x="1960" y="710" as="sourcePoint" />
            <mxPoint x="1780" y="910" as="targetPoint" />
          </mxGeometry>
        </mxCell>
        <mxCell id="xONEwutRC3D1gCXm4Fuw-34" value="" style="html=1;verticalAlign=bottom;labelBackgroundColor=none;endArrow=block;endFill=1;rounded=0;entryX=0.5;entryY=0;entryDx=0;entryDy=0;entryPerimeter=0;exitX=0.75;exitY=1;exitDx=0;exitDy=0;exitPerimeter=0;" edge="1" parent="1" source="xONEwutRC3D1gCXm4Fuw-15" target="xONEwutRC3D1gCXm4Fuw-19">
          <mxGeometry width="160" relative="1" as="geometry">
            <mxPoint x="2070" y="660" as="sourcePoint" />
            <mxPoint x="1910" y="900" as="targetPoint" />
          </mxGeometry>
        </mxCell>
        <mxCell id="xONEwutRC3D1gCXm4Fuw-35" value="" style="html=1;verticalAlign=bottom;labelBackgroundColor=none;endArrow=block;endFill=1;rounded=0;entryX=0.5;entryY=0;entryDx=0;entryDy=0;entryPerimeter=0;exitX=1;exitY=0.75;exitDx=0;exitDy=0;exitPerimeter=0;" edge="1" parent="1" source="xONEwutRC3D1gCXm4Fuw-15" target="xONEwutRC3D1gCXm4Fuw-20">
          <mxGeometry width="160" relative="1" as="geometry">
            <mxPoint x="2040" y="740" as="sourcePoint" />
            <mxPoint x="2220" y="920" as="targetPoint" />
          </mxGeometry>
        </mxCell>
        <mxCell id="xONEwutRC3D1gCXm4Fuw-36" value="" style="html=1;verticalAlign=bottom;labelBackgroundColor=none;endArrow=block;endFill=1;rounded=0;entryX=0.5;entryY=0;entryDx=0;entryDy=0;entryPerimeter=0;exitX=1;exitY=0.5;exitDx=0;exitDy=0;exitPerimeter=0;curved=1;" edge="1" parent="1" source="xONEwutRC3D1gCXm4Fuw-20" target="xONEwutRC3D1gCXm4Fuw-21">
          <mxGeometry width="160" relative="1" as="geometry">
            <mxPoint x="2110" y="690" as="sourcePoint" />
            <mxPoint x="2460" y="892" as="targetPoint" />
            <Array as="points">
              <mxPoint x="2640" y="1130" />
            </Array>
          </mxGeometry>
        </mxCell>
        <mxCell id="xONEwutRC3D1gCXm4Fuw-37" value="" style="html=1;verticalAlign=bottom;labelBackgroundColor=none;endArrow=block;endFill=1;rounded=0;exitX=0.75;exitY=1;exitDx=0;exitDy=0;exitPerimeter=0;entryX=0;entryY=0.5;entryDx=0;entryDy=0;entryPerimeter=0;" edge="1" parent="1" source="xONEwutRC3D1gCXm4Fuw-19" target="xONEwutRC3D1gCXm4Fuw-21">
          <mxGeometry width="160" relative="1" as="geometry">
            <mxPoint x="2040" y="740" as="sourcePoint" />
            <mxPoint x="2130" y="1150" as="targetPoint" />
          </mxGeometry>
        </mxCell>
        <mxCell id="xONEwutRC3D1gCXm4Fuw-38" value="&lt;font style=&quot;font-size: 16px;&quot;&gt;&lt;b&gt;Uses&lt;/b&gt;&lt;/font&gt;" style="text;html=1;align=center;verticalAlign=middle;resizable=0;points=[];autosize=1;strokeColor=none;fillColor=none;" vertex="1" parent="1">
          <mxGeometry x="1923" y="320" width="60" height="30" as="geometry" />
        </mxCell>
        <mxCell id="xONEwutRC3D1gCXm4Fuw-39" value="[&amp;nbsp;&lt;i&gt;HTTP&amp;nbsp;&lt;/i&gt;]" style="text;html=1;align=center;verticalAlign=middle;resizable=0;points=[];autosize=1;strokeColor=none;fillColor=none;fontSize=15;" vertex="1" parent="1">
          <mxGeometry x="1920" y="340" width="80" height="30" as="geometry" />
        </mxCell>
        <mxCell id="xONEwutRC3D1gCXm4Fuw-40" value="&lt;font style=&quot;font-size: 16px;&quot;&gt;&lt;b&gt;Uses&lt;/b&gt;&lt;/font&gt;" style="text;html=1;align=center;verticalAlign=middle;resizable=0;points=[];autosize=1;strokeColor=none;fillColor=none;" vertex="1" parent="1">
          <mxGeometry x="1640" y="720" width="60" height="30" as="geometry" />
        </mxCell>
        <mxCell id="xONEwutRC3D1gCXm4Fuw-41" value="&lt;font style=&quot;font-size: 16px;&quot;&gt;&lt;b&gt;Uses&lt;/b&gt;&lt;/font&gt;" style="text;html=1;align=center;verticalAlign=middle;resizable=0;points=[];autosize=1;strokeColor=none;fillColor=none;" vertex="1" parent="1">
          <mxGeometry x="1770" y="720" width="60" height="30" as="geometry" />
        </mxCell>
        <mxCell id="xONEwutRC3D1gCXm4Fuw-42" value="&lt;font style=&quot;font-size: 16px;&quot;&gt;&lt;b&gt;Uses&lt;/b&gt;&lt;/font&gt;" style="text;html=1;align=center;verticalAlign=middle;resizable=0;points=[];autosize=1;strokeColor=none;fillColor=none;" vertex="1" parent="1">
          <mxGeometry x="1910" y="720" width="60" height="30" as="geometry" />
        </mxCell>
        <mxCell id="xONEwutRC3D1gCXm4Fuw-43" value="&lt;font style=&quot;font-size: 16px;&quot;&gt;&lt;b&gt;Uses&lt;/b&gt;&lt;/font&gt;" style="text;html=1;align=center;verticalAlign=middle;resizable=0;points=[];autosize=1;strokeColor=none;fillColor=none;" vertex="1" parent="1">
          <mxGeometry x="2030" y="720" width="60" height="30" as="geometry" />
        </mxCell>
        <mxCell id="xONEwutRC3D1gCXm4Fuw-44" value="&lt;font style=&quot;font-size: 16px;&quot;&gt;&lt;b&gt;Uses&lt;/b&gt;&lt;/font&gt;" style="text;html=1;align=center;verticalAlign=middle;resizable=0;points=[];autosize=1;strokeColor=none;fillColor=none;" vertex="1" parent="1">
          <mxGeometry x="2180" y="720" width="60" height="30" as="geometry" />
        </mxCell>
        <mxCell id="xONEwutRC3D1gCXm4Fuw-45" value="" style="html=1;verticalAlign=bottom;labelBackgroundColor=none;endArrow=block;endFill=1;rounded=0;exitX=0;exitY=0.25;exitDx=0;exitDy=0;exitPerimeter=0;entryX=0.358;entryY=0.019;entryDx=0;entryDy=0;entryPerimeter=0;curved=1;" edge="1" parent="1" source="xONEwutRC3D1gCXm4Fuw-16" target="xONEwutRC3D1gCXm4Fuw-26">
          <mxGeometry width="160" relative="1" as="geometry">
            <mxPoint x="1140" y="718" as="sourcePoint" />
            <mxPoint x="740" y="920" as="targetPoint" />
            <Array as="points">
              <mxPoint x="350" y="840" />
            </Array>
          </mxGeometry>
        </mxCell>
        <mxCell id="xONEwutRC3D1gCXm4Fuw-46" value="&lt;font style=&quot;font-size: 16px;&quot;&gt;Store/ retrieve&lt;/font&gt;" style="text;html=1;align=center;verticalAlign=middle;resizable=0;points=[];autosize=1;strokeColor=none;fillColor=none;" vertex="1" parent="1">
          <mxGeometry x="540" y="1010" width="120" height="30" as="geometry" />
        </mxCell>
        <mxCell id="xONEwutRC3D1gCXm4Fuw-47" value="" style="html=1;verticalAlign=bottom;labelBackgroundColor=none;endArrow=block;endFill=1;rounded=0;exitX=0;exitY=0.75;exitDx=0;exitDy=0;exitPerimeter=0;entryX=0.293;entryY=0.023;entryDx=0;entryDy=0;entryPerimeter=0;curved=1;" edge="1" parent="1" source="xONEwutRC3D1gCXm4Fuw-17" target="xONEwutRC3D1gCXm4Fuw-25">
          <mxGeometry width="160" relative="1" as="geometry">
            <mxPoint x="1570" y="870" as="sourcePoint" />
            <mxPoint x="857.3600000000001" y="1122.08" as="targetPoint" />
            <Array as="points">
              <mxPoint x="1540" y="960" />
              <mxPoint x="660" y="1002.5" />
              <mxPoint x="690" y="1052.5" />
            </Array>
          </mxGeometry>
        </mxCell>
        <mxCell id="xONEwutRC3D1gCXm4Fuw-48" value="&lt;font style=&quot;font-size: 16px;&quot;&gt;Store/ retrieve&lt;/font&gt;" style="text;html=1;align=center;verticalAlign=middle;resizable=0;points=[];autosize=1;strokeColor=none;fillColor=none;" vertex="1" parent="1">
          <mxGeometry x="690" y="1010" width="120" height="30" as="geometry" />
        </mxCell>
        <mxCell id="xONEwutRC3D1gCXm4Fuw-49" value="" style="html=1;verticalAlign=bottom;labelBackgroundColor=none;endArrow=block;endFill=1;rounded=0;exitX=0;exitY=0.75;exitDx=0;exitDy=0;exitPerimeter=0;entryX=0.224;entryY=0.01;entryDx=0;entryDy=0;entryPerimeter=0;curved=1;" edge="1" parent="1" source="xONEwutRC3D1gCXm4Fuw-18" target="xONEwutRC3D1gCXm4Fuw-24">
          <mxGeometry width="160" relative="1" as="geometry">
            <mxPoint x="1850" y="810" as="sourcePoint" />
            <mxPoint x="1450" y="1012" as="targetPoint" />
            <Array as="points">
              <mxPoint x="1700" y="950" />
              <mxPoint x="1410" y="980" />
              <mxPoint x="710" y="1050" />
            </Array>
          </mxGeometry>
        </mxCell>
        <mxCell id="xONEwutRC3D1gCXm4Fuw-50" value="&lt;font style=&quot;font-size: 16px;&quot;&gt;Store/ retrieve&lt;/font&gt;" style="text;html=1;align=center;verticalAlign=middle;resizable=0;points=[];autosize=1;strokeColor=none;fillColor=none;" vertex="1" parent="1">
          <mxGeometry x="920" y="1040" width="120" height="30" as="geometry" />
        </mxCell>
        <mxCell id="xONEwutRC3D1gCXm4Fuw-51" value="" style="html=1;verticalAlign=bottom;labelBackgroundColor=none;endArrow=block;endFill=1;rounded=0;exitX=0;exitY=0.75;exitDx=0;exitDy=0;exitPerimeter=0;entryX=0.186;entryY=0.01;entryDx=0;entryDy=0;entryPerimeter=0;curved=1;" edge="1" parent="1" source="xONEwutRC3D1gCXm4Fuw-19" target="xONEwutRC3D1gCXm4Fuw-23">
          <mxGeometry width="160" relative="1" as="geometry">
            <mxPoint x="1610" y="1020" as="sourcePoint" />
            <mxPoint x="1400" y="1200" as="targetPoint" />
            <Array as="points">
              <mxPoint x="2010" y="960" />
              <mxPoint x="1010" y="1050" />
              <mxPoint x="1220" y="1090" />
            </Array>
          </mxGeometry>
        </mxCell>
        <mxCell id="xONEwutRC3D1gCXm4Fuw-52" value="&lt;font style=&quot;font-size: 16px;&quot;&gt;Store/ retrieve&lt;/font&gt;" style="text;html=1;align=center;verticalAlign=middle;resizable=0;points=[];autosize=1;strokeColor=none;fillColor=none;" vertex="1" parent="1">
          <mxGeometry x="1140" y="1050" width="120" height="30" as="geometry" />
        </mxCell>
        <mxCell id="xONEwutRC3D1gCXm4Fuw-53" value="" style="html=1;verticalAlign=bottom;labelBackgroundColor=none;endArrow=block;endFill=1;rounded=0;entryX=0.71;entryY=-0.004;entryDx=0;entryDy=0;entryPerimeter=0;exitX=0.75;exitY=1;exitDx=0;exitDy=0;exitPerimeter=0;curved=1;" edge="1" parent="1" source="xONEwutRC3D1gCXm4Fuw-20" target="xONEwutRC3D1gCXm4Fuw-22">
          <mxGeometry width="160" relative="1" as="geometry">
            <mxPoint x="2230" y="760" as="sourcePoint" />
            <mxPoint x="2580" y="962" as="targetPoint" />
            <Array as="points">
              <mxPoint x="2370" y="1010" />
              <mxPoint x="1970" y="1070" />
            </Array>
          </mxGeometry>
        </mxCell>
        <mxCell id="xONEwutRC3D1gCXm4Fuw-54" value="&lt;font style=&quot;font-size: 16px;&quot;&gt;Publishes event to/&lt;br&gt;&amp;nbsp;subscribes&amp;nbsp;&lt;/font&gt;" style="text;html=1;align=center;verticalAlign=middle;resizable=0;points=[];autosize=1;strokeColor=none;fillColor=none;" vertex="1" parent="1">
          <mxGeometry x="2490" y="980" width="160" height="50" as="geometry" />
        </mxCell>
        <mxCell id="xONEwutRC3D1gCXm4Fuw-55" value="&lt;font style=&quot;font-size: 16px;&quot;&gt;Store/ retrieve&lt;/font&gt;" style="text;html=1;align=center;verticalAlign=middle;resizable=0;points=[];autosize=1;strokeColor=none;fillColor=none;" vertex="1" parent="1">
          <mxGeometry x="2310" y="1000" width="120" height="30" as="geometry" />
        </mxCell>
        <mxCell id="xONEwutRC3D1gCXm4Fuw-56" value="&lt;font style=&quot;font-size: 16px;&quot;&gt;Publishes event to/&lt;br&gt;&amp;nbsp;subscribes&amp;nbsp;&lt;/font&gt;" style="text;html=1;align=center;verticalAlign=middle;resizable=0;points=[];autosize=1;strokeColor=none;fillColor=none;" vertex="1" parent="1">
          <mxGeometry x="2170" y="950" width="160" height="50" as="geometry" />
        </mxCell>
        <mxCell id="xONEwutRC3D1gCXm4Fuw-57" value="" style="html=1;verticalAlign=bottom;labelBackgroundColor=none;endArrow=block;endFill=1;rounded=0;exitX=0.448;exitY=0.979;exitDx=0;exitDy=0;exitPerimeter=0;entryX=0.041;entryY=0.638;entryDx=0;entryDy=0;entryPerimeter=0;curved=1;" edge="1" parent="1" source="xONEwutRC3D1gCXm4Fuw-16" target="xONEwutRC3D1gCXm4Fuw-21">
          <mxGeometry width="160" relative="1" as="geometry">
            <mxPoint x="1970" y="750" as="sourcePoint" />
            <mxPoint x="1570" y="952" as="targetPoint" />
            <Array as="points">
              <mxPoint x="1510" y="1050" />
              <mxPoint x="1710" y="1090" />
              <mxPoint x="1900" y="1080" />
              <mxPoint x="2080" y="1090" />
            </Array>
          </mxGeometry>
        </mxCell>
        <mxCell id="xONEwutRC3D1gCXm4Fuw-58" value="" style="html=1;verticalAlign=bottom;labelBackgroundColor=none;endArrow=block;endFill=1;rounded=0;exitX=0.25;exitY=1;exitDx=0;exitDy=0;exitPerimeter=0;curved=1;" edge="1" parent="1" source="xONEwutRC3D1gCXm4Fuw-17" target="xONEwutRC3D1gCXm4Fuw-21">
          <mxGeometry width="160" relative="1" as="geometry">
            <mxPoint x="1950" y="750" as="sourcePoint" />
            <mxPoint x="1740" y="930" as="targetPoint" />
            <Array as="points">
              <mxPoint x="1690" y="1040" />
              <mxPoint x="1990" y="1050" />
            </Array>
          </mxGeometry>
        </mxCell>
        <mxCell id="xONEwutRC3D1gCXm4Fuw-59" value="" style="html=1;verticalAlign=bottom;labelBackgroundColor=none;endArrow=block;endFill=1;rounded=0;entryX=-0.009;entryY=0.592;entryDx=0;entryDy=0;entryPerimeter=0;exitX=0.5;exitY=1;exitDx=0;exitDy=0;exitPerimeter=0;curved=1;" edge="1" parent="1" source="xONEwutRC3D1gCXm4Fuw-18" target="xONEwutRC3D1gCXm4Fuw-21">
          <mxGeometry width="160" relative="1" as="geometry">
            <mxPoint x="1900" y="670" as="sourcePoint" />
            <mxPoint x="1900" y="850" as="targetPoint" />
            <Array as="points">
              <mxPoint x="1930" y="1020" />
              <mxPoint x="2050" y="1040" />
            </Array>
          </mxGeometry>
        </mxCell>
        <mxCell id="xONEwutRC3D1gCXm4Fuw-60" value="&lt;font style=&quot;font-size: 16px;&quot;&gt;Publishes event to/&lt;br&gt;&amp;nbsp;subscribes&amp;nbsp;&lt;/font&gt;" style="text;html=1;align=center;verticalAlign=middle;resizable=0;points=[];autosize=1;strokeColor=none;fillColor=none;" vertex="1" parent="1">
          <mxGeometry x="1550" y="1020" width="160" height="50" as="geometry" />
        </mxCell>
        <mxCell id="xONEwutRC3D1gCXm4Fuw-61" value="&lt;font style=&quot;font-size: 16px;&quot;&gt;Publishes event to/&lt;br&gt;&amp;nbsp;subscribes&amp;nbsp;&lt;/font&gt;" style="text;html=1;align=center;verticalAlign=middle;resizable=0;points=[];autosize=1;strokeColor=none;fillColor=none;" vertex="1" parent="1">
          <mxGeometry x="1740" y="990" width="160" height="50" as="geometry" />
        </mxCell>
        <mxCell id="xONEwutRC3D1gCXm4Fuw-62" value="&lt;font style=&quot;font-size: 16px;&quot;&gt;Publishes event to/&lt;br&gt;&amp;nbsp;subscribes&amp;nbsp;&lt;/font&gt;" style="text;html=1;align=center;verticalAlign=middle;resizable=0;points=[];autosize=1;strokeColor=none;fillColor=none;" vertex="1" parent="1">
          <mxGeometry x="1950" y="970" width="160" height="50" as="geometry" />
        </mxCell>
      </root>
    </mxGraphModel>
  </diagram>
</mxfile>
